# xmcd CD database file generated by Grip 2.96
# 
# Track frame offsets:
#       150
#       12480
#       27915
#       41967
#       53752
#       69332
#       83920
#       93977
#       102262
#       111552
#       122655
#       133800
#       154632
#       167215
#       183152
#       201442
#       215745
#       234790
#       248360
#       261272
#       270405
#       281705
# 
# Disc length: 3924 seconds
# 
# Revision: 0
# Processed by: cddbd v1.4PL0 Copyright (c) Steve Scherf et al.
# Submitted via: Grip 2.96
# 
DISCID=3a0f5216
DTITLE=Nikolin' - Inter du amsezonoj
DYEAR=1900
DGENRE=
TTITLE0=Mirinda Urbo
TTITLE1=Ke Cxiuj Iru al Infero
TTITLE2=Melodio
TTITLE3=Blanka Kristnasko
TTITLE4=Afrika Julkanto
TTITLE5=La Jaro Baldaux For
TTITLE6=Fia Pariz'
TTITLE7=Muziknotoj Tri
TTITLE8=Marjxolena
TTITLE9=La Tempo Cxeriza
TTITLE10=La Bona Formiko
TTITLE11=La Esperanto-knabino
TTITLE12=Serena Lulkanto
TTITLE13=Somertemp'
TTITLE14=Sur la Place
TTITLE15=Il pleut sur Bruxelles
TTITLE16=Les feuilles mortes
TTITLE17=Padam
TTITLE18=Jam temp' esta'
TTITLE19=La stagione del tuo amore
TTITLE20=Lulkanto
TTITLE21=C'est beau la vie
EXTD=
EXTT0=
EXTT1=
EXTT2=
EXTT3=
EXTT4=
EXTT5=
EXTT6=
EXTT7=
EXTT8=
EXTT9=
EXTT10=
EXTT11=
EXTT12=
EXTT13=
EXTT14=
EXTT15=
EXTT16=
EXTT17=
EXTT18=
EXTT19=
EXTT20=
EXTT21=
PLAYORDER=
